<svg width="270" height="54" viewBox="0 0 270 54" fill="none" xmlns="http://www.w3.org/2000/svg">
<path d="M20.07 10.55H17.01C16.91 9.15 16.38 8.13 15.42 7.49C14.48 6.83 13.06 6.5 11.16 6.5C9.28 6.5 7.86 6.8 6.9 7.4C5.94 8 5.46 8.85 5.46 9.95C5.46 10.81 5.76 11.46 6.36 11.9C6.96 12.32 7.95 12.66 9.33 12.92L14.1 13.85C16.5 14.31 18.23 14.97 19.29 15.83C20.35 16.69 20.88 18 20.88 19.76C20.88 21.88 20.06 23.55 18.42 24.77C16.78 25.97 14.45 26.57 11.43 26.57C8.17 26.57 5.7 25.9 4.02 24.56C2.34 23.22 1.5 21.25 1.5 18.65H4.77C4.89 22.03 7.17 23.72 11.61 23.72C13.55 23.72 15.04 23.4 16.08 22.76C17.12 22.1 17.64 21.19 17.64 20.03C17.64 19.15 17.34 18.47 16.74 17.99C16.16 17.51 15.21 17.16 13.89 16.94L8.52 15.98C6.36 15.6 4.77 14.96 3.75 14.06C2.73 13.14 2.22 11.86 2.22 10.22C2.22 8.16 3 6.55 4.56 5.39C6.14 4.23 8.42 3.65 11.4 3.65C14.18 3.65 16.32 4.25 17.82 5.45C19.32 6.65 20.07 8.35 20.07 10.55ZM24.8435 4.22H29.4935L37.8935 23.18L46.5035 4.22H51.0935V26H48.0935V6.89L39.4535 26H36.3335L27.8435 6.89V26H24.8435V4.22Z" fill="white"/>
<path d="M56.37 27V11.01H58.44V27H56.37ZM56.37 7.71V5.22H58.44V7.71H56.37ZM65.1769 27H63.0469V11.04H65.1769V13.68C65.6369 12.68 66.2869 11.9 67.1269 11.34C67.9869 10.76 68.9269 10.47 69.9469 10.47C70.6469 10.47 71.3569 10.62 72.0769 10.92V12.93C71.3969 12.73 70.7669 12.63 70.1869 12.63C67.7269 12.63 66.0569 13.98 65.1769 16.68V27ZM76.3976 27H74.2676V11.04H76.3976V13.68C76.8576 12.68 77.5076 11.9 78.3476 11.34C79.2076 10.76 80.1476 10.47 81.1676 10.47C81.8676 10.47 82.5776 10.62 83.2976 10.92V12.93C82.6176 12.73 81.9876 12.63 81.4076 12.63C78.9476 12.63 77.2776 13.98 76.3976 16.68V27ZM86.8383 25.23C85.2783 23.65 84.4983 21.58 84.4983 19.02C84.4983 16.46 85.2783 14.4 86.8383 12.84C88.4183 11.26 90.4783 10.47 93.0183 10.47C95.5783 10.47 97.6383 11.26 99.1983 12.84C100.778 14.4 101.568 16.46 101.568 19.02C101.568 21.58 100.778 23.65 99.1983 25.23C97.6383 26.79 95.5783 27.57 93.0183 27.57C90.4783 27.57 88.4183 26.79 86.8383 25.23ZM88.3383 14.28C87.1983 15.44 86.6283 17.02 86.6283 19.02C86.6283 21.02 87.1983 22.61 88.3383 23.79C89.4983 24.95 91.0583 25.53 93.0183 25.53C94.9783 25.53 96.5283 24.94 97.6683 23.76C98.8283 22.58 99.4083 21 99.4083 19.02C99.4083 17.04 98.8283 15.46 97.6683 14.28C96.5283 13.1 94.9783 12.51 93.0183 12.51C91.0583 12.51 89.4983 13.1 88.3383 14.28ZM107.189 27H105.059V11.04H107.189V13.68C107.649 12.68 108.299 11.9 109.139 11.34C109.999 10.76 110.939 10.47 111.959 10.47C112.659 10.47 113.369 10.62 114.089 10.92V12.93C113.409 12.73 112.779 12.63 112.199 12.63C109.739 12.63 108.069 13.98 107.189 16.68V27Z" fill="white"/>
<path d="M20.07 43.45H17.01C16.91 44.85 16.38 45.87 15.42 46.51C14.48 47.17 13.06 47.5 11.16 47.5C9.28 47.5 7.86 47.2 6.9 46.6C5.94 46 5.46 45.15 5.46 44.05C5.46 43.19 5.76 42.54 6.36 42.1C6.96 41.68 7.95 41.34 9.33 41.08L14.1 40.15C16.5 39.69 18.23 39.03 19.29 38.17C20.35 37.31 20.88 36 20.88 34.24C20.88 32.12 20.06 30.45 18.42 29.23C16.78 28.03 14.45 27.43 11.43 27.43C8.17 27.43 5.7 28.1 4.02 29.44C2.34 30.78 1.5 32.75 1.5 35.35H4.77C4.89 31.97 7.17 30.28 11.61 30.28C13.55 30.28 15.04 30.6 16.08 31.24C17.12 31.9 17.64 32.81 17.64 33.97C17.64 34.85 17.34 35.53 16.74 36.01C16.16 36.49 15.21 36.84 13.89 37.06L8.52 38.02C6.36 38.4 4.77 39.04 3.75 39.94C2.73 40.86 2.22 42.14 2.22 43.78C2.22 45.84 3 47.45 4.56 48.61C6.14 49.77 8.42 50.35 11.4 50.35C14.18 50.35 16.32 49.75 17.82 48.55C19.32 47.35 20.07 45.65 20.07 43.45ZM24.8435 49.78H29.4935L37.8935 30.82L46.5035 49.78H51.0935V28H48.0935V47.11L39.4535 28H36.3335L27.8435 47.11V28H24.8435V49.78Z" fill="#88FFC9"/>
</svg>
